<?xml version="1.0" encoding="UTF-8" standalone="no"?>
<svg
   xmlns:dc="http://purl.org/dc/elements/1.1/"
   xmlns:cc="http://creativecommons.org/ns#"
   xmlns:rdf="http://www.w3.org/1999/02/22-rdf-syntax-ns#"
   xmlns:svg="http://www.w3.org/2000/svg"
   xmlns="http://www.w3.org/2000/svg"
   xmlns:sodipodi="http://sodipodi.sourceforge.net/DTD/sodipodi-0.dtd"
   xmlns:inkscape="http://www.inkscape.org/namespaces/inkscape"
   sodipodi:docname="end.svg"
   inkscape:version="1.0 (4035a4fb49, 2020-05-01)"
   id="svg8"
   version="1.1"
   viewBox="0 0 85.612961 16.489397"
   height="16.489397mm"
   width="85.612961mm">
  <defs
     id="defs2" />
  <sodipodi:namedview
     fit-margin-bottom="0"
     fit-margin-right="0"
     fit-margin-left="0"
     fit-margin-top="0"
     inkscape:window-maximized="1"
     inkscape:window-y="-9"
     inkscape:window-x="-9"
     inkscape:window-height="1001"
     inkscape:window-width="1920"
     showgrid="false"
     inkscape:document-rotation="0"
     inkscape:current-layer="layer1"
     inkscape:document-units="mm"
     inkscape:cy="42.570266"
     inkscape:cx="204.00513"
     inkscape:zoom="2.8"
     inkscape:pageshadow="2"
     inkscape:pageopacity="0.0"
     borderopacity="1.0"
     bordercolor="#666666"
     pagecolor="#ffffff"
     id="base" />
  <metadata
     id="metadata5">
    <rdf:RDF>
      <cc:Work
         rdf:about="">
        <dc:format>image/svg+xml</dc:format>
        <dc:type
           rdf:resource="http://purl.org/dc/dcmitype/StillImage" />
        <dc:title></dc:title>
      </cc:Work>
    </rdf:RDF>
  </metadata>
  <g
     transform="translate(-54.906525,-140.14419)"
     id="layer1"
     inkscape:groupmode="layer"
     inkscape:label="Calque 1">
    <path
       sodipodi:nodetypes="cssssc"
       id="path833"
       d="m 60.648883,146.88245 c -3.829581,1.22696 -5.16024,-0.6218 -4.640253,-2.85891 0.503595,-2.16659 2.680611,-2.82488 5.410218,-2.81263 15.792209,0.0709 55.682472,-0.0192 73.991042,-0.0667 2.38438,-0.006 4.45669,1.68313 4.06424,4.42527 -0.57868,4.04338 -5.65955,2.5535 -6.89828,-0.95488"
       style="fill:none;stroke:#721c35;stroke-width:2;stroke-linecap:round;stroke-linejoin:miter;stroke-miterlimit:4;stroke-dasharray:none;stroke-opacity:1" />
    <path
       style="fill:none;stroke:#721c35;stroke-width:2;stroke-linecap:round;stroke-linejoin:miter;stroke-miterlimit:4;stroke-dasharray:none;stroke-opacity:1"
       d="m 86.579843,146.53564 c -1.211244,0.38807 -1.632114,-0.19667 -1.467649,-0.90424 0.159281,-0.68526 0.847841,-0.89347 1.711179,-0.8896 4.994864,0.0224 17.611617,-0.006 23.402377,-0.0211 0.75414,-0.002 1.40959,0.53234 1.28546,1.39965 -0.18303,1.27886 -1.79004,0.80763 -2.18183,-0.30202"
       id="path833-7"
       sodipodi:nodetypes="cssssc" />
    <path
       sodipodi:nodetypes="cscssscccscc"
       d="m 100.74277,150.00743 c -0.6312,-0.32869 -1.42471,-0.22776 -1.955906,0.30344 l -0.523403,0.52341 -0.523404,-0.52341 c -0.656293,-0.65629 -1.713036,-0.65629 -2.369329,0 -0.656293,0.65629 -0.656293,1.71304 -10e-7,2.36933 l 0.523404,0.5234 2.369329,2.36933 2.36933,-2.36933 0.5234,-0.5234 c 0.5312,-0.5312 0.63213,-1.32471 0.30344,-1.95591 -0.23896,-0.38369 -0.4779,-0.5603 -0.71686,-0.71686 z"
       style="fill:none;stroke:#721c35;stroke-width:1.5;stroke-linecap:round;stroke-miterlimit:4;stroke-dasharray:none;stroke-opacity:1"
       id="rect850" />
    <path
       id="path874"
       d="m 98.263461,141.1014 v 9.73288"
       style="fill:none;stroke:#721c35;stroke-width:1.5;stroke-linecap:butt;stroke-linejoin:miter;stroke-miterlimit:4;stroke-dasharray:none;stroke-opacity:1" />
  </g>
</svg>
